# Blender v2.79 (sub 0) OBJ File: 'bowlingring.blend'
# www.blender.org
mtllib bowlingring1.mtl
o Plane
v -1.000000 0.000000 0.000000
v 1.000000 0.000000 0.000000
v 1.100000 0.000000 -0.000000
v 1.107686 0.000000 0.078036
v 1.130448 0.000000 0.153073
v 1.167412 0.000000 0.222228
v 1.217157 0.000000 0.282843
v 1.277772 0.000000 0.332588
v 1.346927 0.000000 0.369552
v 1.421964 0.000000 0.392314
v 1.500000 0.000000 0.400000
v 1.578036 0.000000 0.392314
v 1.653074 0.000000 0.369552
v 1.722228 0.000000 0.332588
v 1.782843 0.000000 0.282843
v 1.832588 0.000000 0.222228
v 1.869552 0.000000 0.153073
v 1.892314 0.000000 0.078036
v 1.900000 0.000000 -0.000000
v -1.900000 0.000000 -0.000000
v -1.892314 0.000000 0.078036
v -1.869552 0.000000 0.153073
v -1.832588 0.000000 0.222228
v -1.782843 0.000000 0.282843
v -1.722228 0.000000 0.332588
v -1.653073 0.000000 0.369552
v -1.578036 0.000000 0.392314
v -1.500000 0.000000 0.400000
v -1.421964 0.000000 0.392314
v -1.346926 0.000000 0.369552
v -1.277772 0.000000 0.332588
v -1.217157 0.000000 0.282843
v -1.167412 0.000000 0.222228
v -1.130448 0.000000 0.153073
v -1.107686 0.000000 0.078036
v -1.100000 0.000000 -0.000000
v -1.000000 0.000000 0.000000
v -1.100000 0.000000 -0.000000
v -1.000000 -10.000000 0.000000
v 1.000000 -10.000000 0.000000
v 1.100000 -10.000000 -0.000000
v 1.107686 -10.000000 0.078036
v 1.130448 -10.000000 0.153073
v 1.167412 -10.000000 0.222228
v 1.217157 -10.000000 0.282843
v 1.277772 -10.000000 0.332588
v 1.346927 -10.000000 0.369552
v 1.421964 -10.000000 0.392314
v 1.500000 -10.000000 0.400000
v 1.578036 -10.000000 0.392314
v 1.653074 -10.000000 0.369552
v 1.722228 -10.000000 0.332588
v 1.782843 -10.000000 0.282843
v 1.832588 -10.000000 0.222228
v 1.869552 -10.000000 0.153073
v 1.892314 -10.000000 0.078036
v 1.900000 -10.000000 -0.000000
v -1.900000 -10.000000 -0.000000
v -1.892314 -10.000000 0.078036
v -1.869552 -10.000000 0.153073
v -1.832588 -10.000000 0.222228
v -1.782843 -10.000000 0.282843
v -1.722228 -10.000000 0.332588
v -1.653073 -10.000000 0.369552
v -1.578036 -10.000000 0.392314
v -1.500000 -10.000000 0.400000
v -1.421964 -10.000000 0.392314
v -1.346926 -10.000000 0.369552
v -1.277772 -10.000000 0.332588
v -1.217157 -10.000000 0.282843
v -1.167412 -10.000000 0.222228
v -1.130448 -10.000000 0.153073
v -1.107686 -10.000000 0.078036
v -1.100000 -10.000000 -0.000000
v -1.000000 -10.000000 0.000000
v -1.100000 -10.000000 -0.000000
vt -0.001456 0.847810
vt -0.001526 0.861164
vt -0.001526 0.861164
vt 1.000064 0.857089
vt 0.999995 0.870442
vt 1.000064 0.857089
vt 0.000305 0.509966
vt 0.973098 0.508885
vt 0.000357 0.499873
vt -0.001456 0.847810
vt -0.001877 0.928676
vt 0.969197 0.927578
vt -0.001825 0.918582
vt 0.975952 0.499298
vt 0.000407 0.490260
vt 0.968671 0.917353
vt -0.001772 0.908363
vt 0.979797 0.490545
vt 0.000453 0.481472
vt 0.969302 0.907371
vt -0.001719 0.898375
vt 0.984506 0.482952
vt 0.000493 0.473835
vt -0.000064 0.580738
vt 0.971070 0.897981
vt -0.001670 0.888969
vt 0.989920 0.476810
vt 0.000525 0.467644
vt 0.000005 0.567384
vt 0.995308 0.576498
vt 0.000006 0.567277
vt 0.973918 0.889515
vt -0.001626 0.880477
vt 0.995850 0.472372
vt 0.000549 0.463151
vt 0.989412 0.574312
vt 0.000017 0.565146
vt 0.977755 0.882283
vt -0.001588 0.873210
vt 1.002082 0.469834
vt 0.000562 0.460556
vt 0.984051 0.570224
vt 0.000038 0.561108
vt 0.982455 0.876557
vt -0.001558 0.867441
vt 1.001456 0.590017
vt 0.979412 0.564412
vt 0.000068 0.555339
vt 0.987858 0.872568
vt -0.001537 0.863402
vt -0.002082 0.967993
vt 0.993233 0.974618
vt -0.002069 0.965397
vt 0.975651 0.557109
vt 0.000106 0.548071
vt 0.993776 0.870493
vt -0.001526 0.861272
vt 0.987350 0.970071
vt -0.002045 0.960904
vt 0.972891 0.548591
vt 0.000150 0.539580
vt 0.999995 0.870442
vt 0.982000 0.963829
vt -0.002013 0.954713
vt 0.971221 0.539169
vt 0.000199 0.530173
vt 0.977370 0.956149
vt -0.001973 0.947076
vt 0.970694 0.529176
vt 0.000251 0.520186
vt 0.973617 0.947327
vt -0.001927 0.938289
vt 0.971326 0.518962
vt 0.970863 0.937688
vt 1.001526 0.576663
vt 0.999438 0.977271
vn 0.0000 0.0000 1.0000
vn 0.2903 0.0000 0.9569
vn -0.2903 0.0000 0.9569
vn 0.4714 0.0000 0.8819
vn -0.0980 0.0000 0.9952
vn 0.6344 0.0000 0.7730
vn 0.0980 0.0000 0.9952
vn 0.7730 0.0000 0.6344
vn 0.0000 0.0000 -1.0000
vn 0.8819 0.0000 0.4714
vn -0.9952 0.0000 0.0980
vn 0.9569 0.0000 0.2903
vn -0.9569 0.0000 0.2903
vn 0.9952 0.0000 0.0980
vn -0.8819 0.0000 0.4714
vn -0.7730 0.0000 0.6344
vn -0.6344 0.0000 0.7730
vn -0.4714 0.0000 0.8819
usemtl None
s off
f 1/1/1 38/2/1 36/3/1
f 39/4/1 76/5/1 75/6/1
f 12/7/2 51/8/2 13/9/2
f 37/10/1 39/4/1 75/6/1
f 26/11/3 65/12/3 27/13/3
f 13/9/4 52/14/4 14/15/4
f 27/13/5 66/16/5 28/17/5
f 14/15/6 53/18/6 15/19/6
f 28/17/7 67/20/7 29/21/7
f 15/19/8 54/22/8 16/23/8
f 2/24/9 39/4/9 1/1/9
f 29/21/2 68/25/2 30/26/2
f 16/23/10 55/27/10 17/28/10
f 3/29/11 42/30/11 4/31/11
f 30/26/4 69/32/4 31/33/4
f 17/28/12 56/34/12 18/35/12
f 4/31/13 43/36/13 5/37/13
f 31/33/6 70/38/6 32/39/6
f 18/35/14 57/40/14 19/41/14
f 5/37/15 44/42/15 6/43/15
f 32/39/8 71/44/8 33/45/8
f 3/29/9 40/46/9 2/24/9
f 6/43/16 45/47/16 7/48/16
f 33/45/10 72/49/10 34/50/10
f 20/51/11 59/52/11 21/53/11
f 7/48/17 46/54/17 8/55/17
f 34/50/12 73/56/12 35/57/12
f 21/53/13 60/58/13 22/59/13
f 8/55/18 47/60/18 9/61/18
f 35/57/14 74/62/14 36/3/14
f 22/59/15 61/63/15 23/64/15
f 9/61/3 48/65/3 10/66/3
f 36/3/1 39/4/1 1/1/1
f 23/64/16 62/67/16 24/68/16
f 10/66/5 49/69/5 11/70/5
f 37/10/9 76/5/9 38/2/9
f 24/68/17 63/71/17 25/72/17
f 11/70/7 50/73/7 12/7/7
f 36/3/1 76/5/1 74/62/1
f 25/72/18 64/74/18 26/11/18
f 1/1/1 37/10/1 38/2/1
f 39/4/1 74/62/1 76/5/1
f 12/7/2 50/73/2 51/8/2
f 37/10/1 1/1/1 39/4/1
f 26/11/3 64/74/3 65/12/3
f 13/9/4 51/8/4 52/14/4
f 27/13/5 65/12/5 66/16/5
f 14/15/6 52/14/6 53/18/6
f 28/17/7 66/16/7 67/20/7
f 15/19/8 53/18/8 54/22/8
f 2/24/9 40/46/9 39/4/9
f 29/21/2 67/20/2 68/25/2
f 16/23/10 54/22/10 55/27/10
f 3/29/11 41/75/11 42/30/11
f 30/26/4 68/25/4 69/32/4
f 17/28/12 55/27/12 56/34/12
f 4/31/13 42/30/13 43/36/13
f 31/33/6 69/32/6 70/38/6
f 18/35/14 56/34/14 57/40/14
f 5/37/15 43/36/15 44/42/15
f 32/39/8 70/38/8 71/44/8
f 3/29/9 41/75/9 40/46/9
f 6/43/16 44/42/16 45/47/16
f 33/45/10 71/44/10 72/49/10
f 20/51/11 58/76/11 59/52/11
f 7/48/17 45/47/17 46/54/17
f 34/50/12 72/49/12 73/56/12
f 21/53/13 59/52/13 60/58/13
f 8/55/18 46/54/18 47/60/18
f 35/57/14 73/56/14 74/62/14
f 22/59/15 60/58/15 61/63/15
f 9/61/3 47/60/3 48/65/3
f 36/3/1 74/62/1 39/4/1
f 23/64/16 61/63/16 62/67/16
f 10/66/5 48/65/5 49/69/5
f 37/10/9 75/6/9 76/5/9
f 24/68/17 62/67/17 63/71/17
f 11/70/7 49/69/7 50/73/7
f 36/3/1 38/2/1 76/5/1
f 25/72/18 63/71/18 64/74/18
