# Blender v2.79 (sub 0) OBJ File: 'bowlingring1.blend'
# www.blender.org
mtllib bowlingring1.mtl
o Plane
v -1.000000 0.000000 0.000000
v 1.000000 0.000000 0.000000
v 1.100000 0.000000 0.000000
v 1.103843 0.000000 0.039018
v 1.115224 0.000000 0.076537
v 1.133706 0.000000 0.111114
v 1.158579 0.000000 0.141421
v 1.188886 0.000000 0.166294
v 1.223463 0.000000 0.184776
v 1.260982 0.000000 0.196157
v 1.300000 0.000000 0.200000
v 1.339018 0.000000 0.196157
v 1.376537 0.000000 0.184776
v 1.411114 0.000000 0.166294
v 1.441421 0.000000 0.141421
v 1.466294 0.000000 0.111114
v 1.484776 0.000000 0.076537
v 1.496157 0.000000 0.039018
v 1.500000 0.000000 -0.000000
v 1.441421 -10.000000 0.141421
v 1.411114 -10.000000 0.166294
v 1.376537 -10.000000 0.184776
v 1.339018 -10.000000 0.196157
v 1.300000 -10.000000 0.200000
v 1.260982 -10.000000 0.196157
v 1.223463 -10.000000 0.184776
v 1.188886 -10.000000 0.166294
v -1.500000 0.000000 0.000000
v -1.496157 0.000000 0.039018
v -1.484776 0.000000 0.076537
v -1.466294 0.000000 0.111114
v -1.441421 0.000000 0.141421
v -1.411114 0.000000 0.166294
v -1.376537 0.000000 0.184776
v -1.339018 0.000000 0.196157
v -1.300000 0.000000 0.200000
v -1.260982 0.000000 0.196157
v -1.223463 0.000000 0.184776
v -1.188886 0.000000 0.166294
v -1.158579 0.000000 0.141421
v -1.133706 0.000000 0.111114
v -1.115224 0.000000 0.076537
v -1.103843 0.000000 0.039018
v -1.100000 0.000000 -0.000000
v 1.158579 -10.000000 0.141421
v 1.133706 -10.000000 0.111114
v 1.115224 -10.000000 0.076537
v 1.103843 -10.000000 0.039018
v 1.100000 -10.000000 0.000000
v 1.000000 -10.000000 0.000000
v -1.000000 -10.000000 0.000000
v 1.466294 -10.000000 0.111114
v 1.484776 -10.000000 0.076537
v 1.496157 -10.000000 0.039018
v 1.500000 -10.000000 -0.000000
v -1.500000 -10.000000 0.000000
v -1.496157 -10.000000 0.039018
v -1.484776 -10.000000 0.076537
v -1.466294 -10.000000 0.111114
v -1.441421 -10.000000 0.141421
v -1.411114 -10.000000 0.166294
v -1.376537 -10.000000 0.184776
v -1.339018 -10.000000 0.196157
v -1.300000 -10.000000 0.200000
v -1.260982 -10.000000 0.196157
v -1.223463 -10.000000 0.184776
v -1.188886 -10.000000 0.166294
v -1.158579 -10.000000 0.141421
v -1.133706 -10.000000 0.111114
v -1.115224 -10.000000 0.076537
v -1.103843 -10.000000 0.039018
v -1.100000 -10.000000 -0.000000
vt 0.768081 0.161634
vt 0.024103 0.135119
vt 0.768317 0.138548
vt 0.763957 0.795623
vt 0.019976 0.769108
vt 0.764193 0.772537
vt 0.765370 0.657110
vt 0.021312 0.630591
vt 0.765527 0.634020
vt 0.024338 0.112034
vt 0.768552 0.115463
vt 0.020212 0.746023
vt 0.764428 0.749452
vt 0.024574 0.088948
vt 0.768788 0.092377
vt 0.020448 0.722937
vt 0.764664 0.726366
vt 0.024810 0.065863
vt 0.769023 0.069292
vt 0.020683 0.699852
vt 0.764899 0.703281
vt 0.761601 1.026479
vt 0.017619 0.999964
vt 0.761837 1.003393
vt 0.025046 0.042777
vt 0.769259 0.046206
vt 0.020919 0.676766
vt 0.765135 0.680195
vt 0.766213 0.369410
vt 0.017854 0.976878
vt 0.762073 0.980308
vt 0.025281 0.019692
vt 0.769494 0.023121
vt 0.021155 0.653681
vt 0.766197 0.346318
vt 0.022217 0.319803
vt 0.766432 0.323232
vt 0.018090 0.953793
vt 0.762308 0.957222
vt 0.025517 -0.003394
vt 0.769730 0.000035
vt 0.022453 0.296718
vt 0.766668 0.300147
vt 0.018326 0.930707
vt 0.762544 0.934137
vt 0.025753 -0.026479
vt 0.769966 -0.023050
vt 0.022688 0.273632
vt 0.766903 0.277061
vt 0.018562 0.907622
vt 0.762779 0.911051
vt 0.021997 0.365981
vt 0.022924 0.250547
vt 0.767139 0.253976
vt 0.018797 0.884536
vt 0.763015 0.887965
vt 0.023160 0.227461
vt 0.767374 0.230890
vt 0.019033 0.861450
vt 0.763250 0.864880
vt 0.023395 0.204376
vt 0.767610 0.207805
vt 0.019269 0.838365
vt 0.763486 0.841794
vt 0.023631 0.181290
vt 0.767846 0.184719
vt 0.019505 0.815279
vt 0.763722 0.818709
vt 0.023867 0.158205
vt 0.019740 0.792194
vt 0.017383 1.023050
vt 0.021981 0.342889
vn 0.0980 0.0000 0.9952
vn 0.4714 0.0000 0.8819
vn -0.0000 0.0000 1.0000
vn 0.2903 0.0000 0.9569
vn 0.6344 0.0000 0.7730
vn 0.7730 0.0000 0.6344
vn 0.8819 0.0000 0.4714
vn -0.9952 0.0000 0.0980
vn 0.9569 0.0000 0.2903
vn 0.0000 0.0000 -1.0000
vn -0.9569 0.0000 0.2903
vn 0.9952 0.0000 0.0980
vn -0.8819 0.0000 0.4714
vn -0.7730 0.0000 0.6344
vn -0.6344 0.0000 0.7730
vn -0.4714 0.0000 0.8819
vn -0.2903 0.0000 0.9569
vn -0.0980 0.0000 0.9952
usemtl None
s off
f 11/1/1 23/2/1 12/3/1
f 38/4/2 67/5/2 39/6/2
f 44/7/3 51/8/3 1/9/3
f 12/3/4 22/10/4 13/11/4
f 39/6/5 68/12/5 40/13/5
f 13/11/2 21/14/2 14/15/2
f 40/13/6 69/16/6 41/17/6
f 14/15/5 20/18/5 15/19/5
f 41/17/7 70/20/7 42/21/7
f 28/22/8 57/23/8 29/24/8
f 15/19/6 52/25/6 16/26/6
f 42/21/9 71/27/9 43/28/9
f 2/29/10 51/8/10 1/9/10
f 29/24/11 58/30/11 30/31/11
f 16/26/7 53/32/7 17/33/7
f 43/28/12 72/34/12 44/7/12
f 3/35/8 48/36/8 4/37/8
f 30/31/13 59/38/13 31/39/13
f 17/33/9 54/40/9 18/41/9
f 4/37/11 47/42/11 5/43/11
f 31/39/14 60/44/14 32/45/14
f 18/41/12 55/46/12 19/47/12
f 5/43/13 46/48/13 6/49/13
f 32/45/15 61/50/15 33/51/15
f 3/35/10 50/52/10 2/29/10
f 6/49/14 45/53/14 7/54/14
f 33/51/16 62/55/16 34/56/16
f 7/54/15 27/57/15 8/58/15
f 34/56/17 63/59/17 35/60/17
f 8/58/16 26/61/16 9/62/16
f 35/60/18 64/63/18 36/64/18
f 9/62/17 25/65/17 10/66/17
f 36/64/1 65/67/1 37/68/1
f 10/66/18 24/69/18 11/1/18
f 37/68/4 66/70/4 38/4/4
f 11/1/1 24/69/1 23/2/1
f 38/4/2 66/70/2 67/5/2
f 44/7/3 72/34/3 51/8/3
f 12/3/4 23/2/4 22/10/4
f 39/6/5 67/5/5 68/12/5
f 13/11/2 22/10/2 21/14/2
f 40/13/6 68/12/6 69/16/6
f 14/15/5 21/14/5 20/18/5
f 41/17/7 69/16/7 70/20/7
f 28/22/8 56/71/8 57/23/8
f 15/19/6 20/18/6 52/25/6
f 42/21/9 70/20/9 71/27/9
f 2/29/10 50/52/10 51/8/10
f 29/24/11 57/23/11 58/30/11
f 16/26/7 52/25/7 53/32/7
f 43/28/12 71/27/12 72/34/12
f 3/35/8 49/72/8 48/36/8
f 30/31/13 58/30/13 59/38/13
f 17/33/9 53/32/9 54/40/9
f 4/37/11 48/36/11 47/42/11
f 31/39/14 59/38/14 60/44/14
f 18/41/12 54/40/12 55/46/12
f 5/43/13 47/42/13 46/48/13
f 32/45/15 60/44/15 61/50/15
f 3/35/10 49/72/10 50/52/10
f 6/49/14 46/48/14 45/53/14
f 33/51/16 61/50/16 62/55/16
f 7/54/15 45/53/15 27/57/15
f 34/56/17 62/55/17 63/59/17
f 8/58/16 27/57/16 26/61/16
f 35/60/18 63/59/18 64/63/18
f 9/62/17 26/61/17 25/65/17
f 36/64/1 64/63/1 65/67/1
f 10/66/18 25/65/18 24/69/18
f 37/68/4 65/67/4 66/70/4
